<svg xmlns="http://www.w3.org/2000/svg" style="display:none;">
  <!-- GITHUB -->
  <symbol id="icon-github" viewBox="0 0 24 24" fill="currentColor">
    <path stroke="none" d="M0 0h24v24H0z" fill="none"/>
    <path d="M5.315 2.1c.791 -.113 1.9 .145 3.333 .966l.272 .161l.16 .1l.397 -.083a13.3 13.3 0 0 1 4.59 -.08l.456 .08l.396 .083l.161 -.1c1.385 -.84 2.487 -1.17 3.322 -1.148l.164 .008l.147 .017l.076 .014l.05 .011l.144 .047a1 1 0 0 1 .53 .514a5.2 5.2 0 0 1 .397 2.91l-.047 .267l-.046 .196l.123 .163c.574 .795 .93 1.728 1.03 2.707l.023 .295l.007 .272c0 3.855 -1.659 5.883 -4.644 6.68l-.245 .061l-.132 .029l.014 .161l.008 .157l.004 .365l-.002 .213l-.003 3.834a1 1 0 0 1 -.883 .993l-.117 .007h-6a1 1 0 0 1 -.993 -.883l-.007 -.117v-.734c-1.818 .26 -3.03 -.424 -4.11 -1.878l-.535 -.766c-.28 -.396 -.455 -.579 -.589 -.644l-.048 -.019a1 1 0 0 1 .564 -1.918c.642 .188 1.074 .568 1.57 1.239l.538 .769c.76 1.079 1.36 1.459 2.609 1.191l.001 -.678l-.018 -.168a5.03 5.03 0 0 1 -.021 -.824l.017 -.185l.019 -.12l-.108 -.024c-2.976 -.71 -4.703 -2.573 -4.875 -6.139l-.01 -.31l-.004 -.292a5.6 5.6 0 0 1 .908 -3.051l.152 -.222l.122 -.163l-.045 -.196a5.2 5.2 0 0 1 .145 -2.642l.1 -.282l.106 -.253a1 1 0 0 1 .529 -.514l.144 -.047l.154 -.03z"/>
  </symbol>

  <!-- PYTHON -->
  <symbol id="icon-python" viewBox="0 0 24 24" fill="none" stroke="currentColor" stroke-width="2" stroke-linecap="round" stroke-linejoin="round">
    <path stroke="none" d="M0 0h24v24H0z" fill="none"/>
    <path d="M12 9h-7a2 2 0 0 0 -2 2v4a2 2 0 0 0 2 2h3" />
    <path d="M12 15h7a2 2 0 0 0 2 -2v-4a2 2 0 0 0 -2 -2h-3" />
    <path d="M8 9v-4a2 2 0 0 1 2 -2h4a2 2 0 0 1 2 2v5a2 2 0 0 1 -2 2h-4a2 2 0 0 0 -2 2v5a2 2 0 0 0 2 2h4a2 2 0 0 0 2 -2v-4" />
    <path d="M11 6l0 .01" />
    <path d="M13 18l0 .01" />
  </symbol>

  <!-- LINKEDIN -->
  <symbol id="icon-linkedin" viewBox="0 0 24 24" fill="currentColor">
    <path stroke="none" d="M0 0h24v24H0z" fill="none"/>
    <path d="M17 2a5 5 0 0 1 5 5v10a5 5 0 0 1 -5 5h-10a5 5 0 0 1 -5 -5v-10a5 5 0 0 1 5 -5zm-9 8a1 1 0 0 0 -1 1v5a1 1 0 0 0 2 0v-5a1 1 0 0 0 -1 -1m6 0a3 3 0 0 0 -1.168 .236l-.125 .057a1 1 0 0 0 -1.707 .707v5a1 1 0 0 0 2 0v-3a1 1 0 0 1 2 0v3a1 1 0 0 0 2 0v-3a3 3 0 0 0 -3 -3m-6 -3a1 1 0 0 0 -.993 .883l-.007 .127a1 1 0 0 0 1.993 .117l.007 -.127a1 1 0 0 0 -1 -1" />
  </symbol>
  
  <!-- JAVASCRIPT -->
  <symbol id="icon-javascript" viewBox="0 0 16 16" fill="currentColor">
    <path fill-rule="evenodd" d="M14 0a2 2 0 0 1 2 2v12a2 2 0 0 1-2 2H2a2 2 0 0 1-2-2V2a2 2 0 0 1 2-2zM9.053 7.596v3.127l-.007 1.752q0 .498-.186.752t-.556.263q-.342 0-.528-.234-.185-.234-.185-.684v-.175H6.37v.185q0 .665.253 1.113.255.45.703.674.44.225 1.016.225.88 0 1.406-.498.527-.498.527-1.485l.007-1.752V7.596zm3.808-.108q-.585 0-1.006.244a1.67 1.67 0 0 0-.634.674 2.1 2.1 0 0 0-.225.996q0 .753.293 1.182.303.42.967.732l.469.215q.438.186.625.43.185.244.185.635 0 .478-.166.703-.156.224-.527.224-.361.001-.547-.244-.186-.243-.205-.752h-1.162q.02.996.498 1.524.479.527 1.386.527.909 0 1.417-.518.507-.517.507-1.484 0-.81-.332-1.289t-1.045-.79l-.449-.196q-.39-.166-.556-.381-.166-.214-.166-.576 0-.4.165-.596.177-.195.508-.195.361 0 .508.234.156.234.176.703h1.123q-.03-.976-.498-1.484-.47-.518-1.309-.518"/>
  </symbol>

  <!-- TAILWIND -->
  <symbol id="icon-tailwind" viewBox="0 0 24 24" fill="none" stroke="currentColor" stroke-width="2" stroke-linecap="round" stroke-linejoin="round">
    <path stroke="none" d="M0 0h24v24H0z" fill="none"/>
    <path d="M11.667 6c-2.49 0 -4.044 1.222 -4.667 3.667c.933 -1.223 2.023 -1.68 3.267 -1.375c.71 .174 1.217 .68 1.778 1.24c.916 .912 2 1.968 4.288 1.968c2.49 0 4.044 -1.222 4.667 -3.667c-.933 1.223 -2.023 1.68 -3.267 1.375c-.71 -.174 -1.217 -.68 -1.778 -1.24c-.916 -.912 -1.975 -1.968 -4.288 -1.968zm-4 6.5c-2.49 0 -4.044 1.222 -4.667 3.667c.933 -1.223 2.023 -1.68 3.267 -1.375c.71 .174 1.217 .68 1.778 1.24c.916 .912 1.975 1.968 4.288 1.968c2.49 0 4.044 -1.222 4.667 -3.667c-.933 1.223 -2.023 1.68 -3.267 1.375c-.71 -.174 -1.217 -.68 -1.778 -1.24c-.916 -.912 -1.975 -1.968 -4.288 -1.968z" />
  </symbol>

  <!-- HTML -->
  <symbol id="icon-html" viewBox="0 0 24 24" fill="none" stroke="currentColor" stroke-width="2" stroke-linecap="round" stroke-linejoin="round">
    <path stroke="none" d="M0 0h24v24H0z" fill="none"/>
    <path d="M20 4l-2 14.5l-6 2l-6 -2l-2 -14.5z" />
    <path d="M15.5 8h-7l.5 4h6l-.5 3.5l-2.5 .75l-2.5 -.75l-.1 -.5" />
  </symbol>

  <!-- REACT -->
  <symbol id="icon-react" viewBox="0 0 24 24" fill="none" stroke="currentColor" stroke-width="2" stroke-linecap="round" stroke-linejoin="round">
    <path stroke="none" d="M0 0h24v24H0z" fill="none"/>
    <path d="M6.306 8.711c-2.602 .723 -4.306 1.926 -4.306 3.289c0 2.21 4.477 4 10 4c.773 0 1.526 -.035 2.248 -.102" />
    <path d="M17.692 15.289c2.603 -.722 4.308 -1.926 4.308 -3.289c0 -2.21 -4.477 -4 -10 -4c-.773 0 -1.526 .035 -2.25 .102" />
    <path d="M6.305 15.287c-.676 2.615 -.485 4.693 .695 5.373c1.913 1.105 5.703 -1.877 8.464 -6.66c.387 -.67 .733 -1.339 1.036 -2" />
    <path d="M17.694 8.716c.677 -2.616 .487 -4.696 -.694 -5.376c-1.913 -1.105 -5.703 1.877 -8.464 6.66c-.387 .67 -.733 1.34 -1.037 2" />
    <path d="M12 5.424c-1.925 -1.892 -3.82 -2.766 -5 -2.084c-1.913 1.104 -1.226 5.877 1.536 10.66c.386 .67 .793 1.304 1.212 1.896" />
    <path d="M12 18.574c1.926 1.893 3.821 2.768 5 2.086c1.913 -1.104 1.226 -5.877 -1.536 -10.66c-.375 -.65 -.78 -1.283 -1.212 -1.897" />
    <path d="M11.5 12.866a1 1 0 1 0 1 -1.732a1 1 0 0 0 -1 1.732z" />
  </symbol>

  <!-- GIT -->
  <symbol id="icon-git" viewBox="0 0 16 16" fill="currentColor">
    <path d="M15.698 7.287 8.712.302a1.03 1.03 0 0 0-1.457 0l-1.45 1.45 1.84 1.84a1.223 1.223 0 0 1 1.55 1.56l1.773 1.774a1.224 1.224 0 0 1 1.267 2.025 1.226 1.226 0 0 1-2.002-1.334L8.58 5.963v4.353a1.226 1.226 0 1 1-1.008-.036V5.887a1.226 1.226 0 0 1-.666-1.608L5.093 2.465l-4.79 4.79a1.03 1.03 0 0 0 0 1.457l6.986 6.986a1.03 1.03 0 0 0 1.457 0l6.953-6.953a1.03 1.03 0 0 0 0-1.457"/>
  </symbol>

  <!-- CSS -->
  <symbol id="icon-css" viewBox="0 0 16 16" fill="currentColor">
    <path fill-rule="evenodd" d="M14 0a2 2 0 0 1 2 2v12a2 2 0 0 1-2 2H2a2 2 0 0 1-2-2V0zM4.59 7.498q-.908 0-1.455.508-.547.507-.547 1.484v3.106q0 .986.527 1.484t1.406.498q.576 0 1.016-.224.45-.225.703-.674.255-.45.254-1.114v-.185h-1.22v.176q0 .449-.186.683t-.527.235q-.372-.01-.557-.264-.186-.255-.186-.752V9.686q0-.547.166-.811.177-.264.577-.264.321 0 .517.225.195.224.195.693v.205h1.23V9.52q0-.674-.243-1.124a1.55 1.55 0 0 0-.664-.673q-.42-.225-1.006-.225m4.214-.01q-.586 0-1.006.244a1.67 1.67 0 0 0-.635.674 2.1 2.1 0 0 0-.225.996q0 .753.293 1.182.304.42.967.732l.469.215q.44.186.625.43.186.244.186.635 0 .478-.166.703-.157.224-.528.224-.36 0-.547-.244-.185-.243-.205-.752H6.87q.02.996.498 1.524.479.527 1.387.527t1.416-.518.508-1.484q0-.81-.332-1.289-.333-.479-1.045-.79l-.45-.196q-.39-.166-.556-.381-.165-.214-.166-.576 0-.4.166-.596.175-.195.508-.195.36 0 .508.234.156.234.175.703h1.123q-.03-.976-.498-1.484-.468-.518-1.308-.518m4.057 0q-.585 0-1.006.244a1.67 1.67 0 0 0-.634.674 2.1 2.1 0 0 0-.225.996q0 .753.293 1.182.303.42.967.732l.469.215q.438.186.625.43.185.244.185.635 0 .478-.166.703-.156.224-.527.224-.361.001-.547-.244-.186-.243-.205-.752h-1.162q.02.996.498 1.524.479.527 1.386.527.909 0 1.417-.518.507-.517.507-1.484 0-.81-.332-1.289t-1.045-.79l-.449-.196q-.39-.166-.556-.381-.166-.214-.166-.576 0-.4.165-.596.177-.195.508-.195.361 0 .508.234.156.234.176.703h1.123q-.03-.976-.498-1.484-.47-.518-1.309-.518"/>
  </symbol>
  
</svg>